# Blender 4.1.1
# www.blender.org
mtllib enemy_body.mtl
o body
v -0.400000 0.858345 1.200000
v -0.400000 1.458345 1.200000
v -0.400000 0.858345 1.000000
v -0.400000 1.458345 1.000000
v -0.200000 0.858345 1.200000
v -0.200000 1.458345 1.200000
v -0.200000 0.858345 1.000000
v -0.200000 1.458345 1.000000
v -0.805775 0.158345 0.805775
v -0.805775 0.352571 1.000000
v -1.000000 0.352571 0.805775
v -0.805775 1.964120 1.000000
v -0.805775 2.158345 0.805775
v -1.000000 1.964120 0.805775
v -0.805775 0.158345 -0.805775
v -1.000000 0.352571 -0.805775
v -0.805775 0.352571 -1.000000
v -0.805775 2.158345 -0.805775
v -0.805775 1.964120 -1.000000
v -1.000000 1.964120 -0.805775
v 0.805775 0.158345 0.805775
v 1.000000 0.352571 0.805775
v 0.805775 0.352571 1.000000
v 0.805775 2.158345 0.805775
v 0.805775 1.964120 1.000000
v 1.000000 1.964120 0.805775
v 0.805775 0.158345 -0.805775
v 0.805775 0.352571 -1.000000
v 1.000000 0.352571 -0.805775
v 0.805775 2.158345 -0.805775
v 1.000000 1.964120 -0.805775
v 0.805775 1.964120 -1.000000
v 1.200000 0.658345 0.500000
v 1.200000 1.658345 0.500000
v 1.000000 0.658345 0.500000
v 1.000000 1.658345 0.500000
v 1.200000 0.658345 -0.500000
v 1.200000 1.658345 -0.500000
v 1.000000 0.658345 -0.500000
v 1.000000 1.658345 -0.500000
v -1.000000 0.658345 0.500000
v -1.000000 1.658345 0.500000
v -1.200000 0.658345 0.500000
v -1.200000 1.658345 0.500000
v -1.000000 0.658345 -0.500000
v -1.000000 1.658345 -0.500000
v -1.200000 0.658345 -0.500000
v -1.200000 1.658345 -0.500000
v 1.200000 1.158345 -0.500000
v 1.200000 0.658345 -0.000000
v 1.200000 1.158345 0.500000
v 1.200000 1.658345 -0.000000
v 2.200000 1.158345 -0.000000
v -1.200000 1.158345 -0.500000
v -1.200000 1.658345 -0.000000
v -1.200000 1.158345 0.500000
v -1.200000 0.658345 -0.000000
v -2.200000 1.158345 -0.000000
v 0.200000 0.858345 1.200000
v 0.200000 1.458345 1.200000
v 0.200000 0.858345 1.000000
v 0.200000 1.458345 1.000000
v 0.400000 0.858345 1.200000
v 0.400000 1.458345 1.200000
v 0.400000 0.858345 1.000000
v 0.400000 1.458345 1.000000
vn -1.0000 -0.0000 -0.0000
vn -0.0000 -0.0000 -1.0000
vn 1.0000 -0.0000 -0.0000
vn -0.0000 -0.0000 1.0000
vn -0.0000 -1.0000 -0.0000
vn -0.0000 1.0000 -0.0000
vn -0.5774 -0.5774 0.5774
vn -0.5774 0.5773 0.5774
vn -0.5774 -0.5774 -0.5774
vn -0.5774 0.5773 -0.5774
vn 0.5774 -0.5774 0.5774
vn 0.5774 0.5773 0.5774
vn 0.5774 -0.5774 -0.5774
vn 0.5774 0.5773 -0.5774
vn -0.7071 -0.7071 -0.0000
vn -0.7071 -0.0000 0.7071
vn -0.7071 0.7071 -0.0000
vn -0.7071 -0.0000 -0.7071
vn -0.0000 -0.7071 -0.7071
vn -0.0000 0.7071 -0.7071
vn 0.7071 -0.0000 -0.7071
vn 0.7071 -0.7071 -0.0000
vn 0.7071 0.7071 -0.0000
vn 0.7071 -0.0000 0.7071
vn -0.0000 -0.7071 0.7071
vn -0.0000 0.7071 0.7071
vn 0.3333 -0.6667 -0.6667
vn 0.3333 -0.6667 0.6667
vn 0.3333 0.6667 0.6667
vn 0.3333 0.6667 -0.6667
vn -0.3333 0.6667 -0.6667
vn -0.3333 0.6667 0.6667
vn -0.3333 -0.6667 0.6667
vn -0.3333 -0.6667 -0.6667
vt 0.375000 0.000000
vt 0.625000 0.000000
vt 0.625000 0.250000
vt 0.375000 0.250000
vt 0.625000 0.500000
vt 0.375000 0.500000
vt 0.625000 0.750000
vt 0.375000 0.750000
vt 0.625000 1.000000
vt 0.375000 1.000000
vt 0.125000 0.500000
vt 0.125000 0.750000
vt 0.875000 0.500000
vt 0.875000 0.750000
vt 0.399278 0.774278
vt 0.600722 0.774278
vt 0.600722 0.975722
vt 0.399278 0.975722
vt 0.399278 0.524278
vt 0.600722 0.524278
vt 0.600722 0.725722
vt 0.399278 0.725722
vt 0.649278 0.524278
vt 0.850722 0.524278
vt 0.850722 0.725722
vt 0.649278 0.725722
vt 0.399278 0.024278
vt 0.600722 0.024278
vt 0.600722 0.225722
vt 0.399278 0.225722
vt 0.399278 0.274278
vt 0.600722 0.274278
vt 0.600722 0.475722
vt 0.399278 0.475722
vt 0.149278 0.725722
vt 0.149278 0.750000
vt 0.125000 0.725722
vt 0.600722 0.000000
vt 0.625000 0.024278
vt 0.149278 0.524278
vt 0.125000 0.524278
vt 0.149278 0.500000
vt 0.625000 0.225722
vt 0.600722 0.250000
vt 0.350722 0.725722
vt 0.375000 0.725722
vt 0.350722 0.750000
vt 0.625000 0.774278
vt 0.600722 0.750000
vt 0.350722 0.524278
vt 0.350722 0.500000
vt 0.375000 0.524278
vt 0.625000 0.475722
vt 0.600722 0.500000
vt 0.399278 0.000000
vt 0.625000 0.274278
vt 0.625000 0.975722
vt 0.250000 0.490000
vt 0.250000 0.250000
vt 0.490000 0.250000
vt 0.250000 0.010000
vt 0.750000 0.490000
vt 0.990000 0.250000
vt 0.750000 0.010000
vt 0.510000 0.250000
vt 0.010000 0.250000
s 0
f 1/1/1 2/2/1 4/3/1 3/4/1
f 3/4/2 4/3/2 8/5/2 7/6/2
f 7/6/3 8/5/3 6/7/3 5/8/3
f 5/8/4 6/7/4 2/9/4 1/10/4
f 3/11/5 7/6/5 5/8/5 1/12/5
f 8/5/6 4/13/6 2/14/6 6/7/6
f 23/15/4 25/16/4 12/17/4 10/18/4
f 29/19/3 31/20/3 26/21/3 22/22/3
f 30/23/6 18/24/6 13/25/6 24/26/6
f 11/27/1 14/28/1 20/29/1 16/30/1
f 17/31/2 19/32/2 32/33/2 28/34/2
f 9/35/7 10/36/7 11/37/7
f 12/38/8 13/39/8 14/28/8
f 15/40/9 16/41/9 17/42/9
f 18/43/10 19/44/10 20/29/10
f 21/45/11 22/46/11 23/47/11
f 24/48/12 25/16/12 26/49/12
f 27/50/13 28/51/13 29/52/13
f 30/53/14 31/54/14 32/33/14
f 15/40/15 9/35/15 11/37/15 16/41/15
f 10/55/16 12/38/16 14/28/16 11/27/16
f 13/39/17 18/43/17 20/29/17 14/28/17
f 19/32/18 17/31/18 16/30/18 20/29/18
f 27/50/19 15/40/19 17/42/19 28/51/19
f 18/56/20 30/53/20 32/33/20 19/32/20
f 31/20/21 29/19/21 28/34/21 32/33/21
f 21/45/22 27/50/22 29/19/22 22/22/22
f 30/23/23 24/26/23 26/21/23 31/20/23
f 25/16/24 23/15/24 22/22/24 26/21/24
f 9/35/25 21/45/25 23/47/25 10/36/25
f 24/48/26 13/57/26 12/17/26 25/16/26
f 15/40/5 27/50/5 21/45/5 9/35/5
f 33/1/4 34/2/4 36/3/4 35/4/4
f 35/4/1 36/3/1 40/5/1 39/6/1
f 39/6/2 40/5/2 38/7/2 37/8/2
f 37/8/3 38/7/3 34/9/3 33/10/3
f 35/11/5 39/6/5 37/8/5 33/12/5
f 40/5/6 36/13/6 34/14/6 38/7/6
f 41/1/4 42/2/4 44/3/4 43/4/4
f 43/4/1 44/3/1 48/5/1 47/6/1
f 47/6/2 48/5/2 46/7/2 45/8/2
f 45/8/3 46/7/3 42/9/3 41/10/3
f 43/11/5 47/6/5 45/8/5 41/12/5
f 48/5/6 44/13/6 42/14/6 46/7/6
f 49/58/27 53/59/27 50/60/27
f 50/60/28 53/59/28 51/61/28
f 49/62/1 50/63/1 51/64/1 52/65/1
f 51/61/29 53/59/29 52/66/29
f 52/66/30 53/59/30 49/58/30
f 54/58/31 58/59/31 55/60/31
f 55/60/32 58/59/32 56/61/32
f 54/62/3 55/63/3 56/64/3 57/65/3
f 56/61/33 58/59/33 57/66/33
f 57/66/34 58/59/34 54/58/34
f 59/1/1 60/2/1 62/3/1 61/4/1
f 61/4/2 62/3/2 66/5/2 65/6/2
f 65/6/3 66/5/3 64/7/3 63/8/3
f 63/8/4 64/7/4 60/9/4 59/10/4
f 61/11/5 65/6/5 63/8/5 59/12/5
f 66/5/6 62/13/6 60/14/6 64/7/6
