# Blender 4.2.0
# www.blender.org
mtllib Goal.mtl
o 円柱
v 0.000000 -0.029618 -0.200000
v 0.000000 7.970382 -0.200000
v 0.039018 -0.029618 -0.196157
v 0.039018 7.970382 -0.196157
v 0.076537 -0.029618 -0.184776
v 0.076537 7.970382 -0.184776
v 0.111114 -0.029618 -0.166294
v 0.111114 7.970382 -0.166294
v 0.141421 -0.029618 -0.141421
v 0.141421 7.970382 -0.141421
v 0.166294 -0.029618 -0.111114
v 0.166294 7.970382 -0.111114
v 0.184776 -0.029618 -0.076537
v 0.184776 7.970382 -0.076537
v 0.196157 -0.029618 -0.039018
v 0.196157 7.970382 -0.039018
v 0.200000 -0.029618 0.000000
v 0.200000 7.970382 0.000000
v 0.196157 -0.029618 0.039018
v 0.196157 7.970382 0.039018
v 0.184776 -0.029618 0.076537
v 0.184776 7.970382 0.076537
v 0.166294 -0.029618 0.111114
v 0.166294 7.970382 0.111114
v 0.141421 -0.029618 0.141421
v 0.141421 7.970382 0.141421
v 0.111114 -0.029618 0.166294
v 0.111114 7.970382 0.166294
v 0.076537 -0.029618 0.184776
v 0.076537 7.970382 0.184776
v 0.039018 -0.029618 0.196157
v 0.039018 7.970382 0.196157
v 0.000000 -0.029618 0.200000
v 0.000000 7.970382 0.200000
v -0.039018 -0.029618 0.196157
v -0.039018 7.970382 0.196157
v -0.076537 -0.029618 0.184776
v -0.076537 7.970382 0.184776
v -0.111114 -0.029618 0.166294
v -0.111114 7.970382 0.166294
v -0.141421 -0.029618 0.141421
v -0.141421 7.970382 0.141421
v -0.166294 -0.029618 0.111114
v -0.166294 7.970382 0.111114
v -0.184776 -0.029618 0.076537
v -0.184776 7.970382 0.076537
v -0.196157 -0.029618 0.039018
v -0.196157 7.970382 0.039018
v -0.200000 -0.029618 0.000000
v -0.200000 7.970382 0.000000
v -0.196157 -0.029618 -0.039018
v -0.196157 7.970382 -0.039018
v -0.184776 -0.029618 -0.076537
v -0.184776 7.970382 -0.076537
v -0.166294 -0.029618 -0.111114
v -0.166294 7.970382 -0.111114
v -0.141421 -0.029618 -0.141421
v -0.141421 7.970382 -0.141421
v -0.111114 -0.029618 -0.166294
v -0.111114 7.970382 -0.166294
v -0.076537 -0.029618 -0.184776
v -0.076537 7.970382 -0.184776
v -0.039018 -0.029618 -0.196157
v -0.039018 7.970382 -0.196157
v 0.058613 4.742497 0.100000
v 0.058613 7.942498 0.100000
v 0.058613 4.742497 -0.100000
v 0.058613 7.942498 -0.100000
v 4.458612 4.742497 0.100000
v 4.458612 7.942498 0.100000
v 4.458612 4.742497 -0.100000
v 4.458612 7.942498 -0.100000
v 0.058613 6.342498 0.100000
v 0.058613 6.342498 -0.100000
v 2.890181 6.342498 -0.100000
v 2.890181 6.342498 0.100000
vn 0.0980 -0.0000 -0.9952
vn 0.2903 -0.0000 -0.9569
vn 0.4714 -0.0000 -0.8819
vn 0.6344 -0.0000 -0.7730
vn 0.7730 -0.0000 -0.6344
vn 0.8819 -0.0000 -0.4714
vn 0.9569 -0.0000 -0.2903
vn 0.9952 -0.0000 -0.0980
vn 0.9952 -0.0000 0.0980
vn 0.9569 -0.0000 0.2903
vn 0.8819 -0.0000 0.4714
vn 0.7730 -0.0000 0.6344
vn 0.6344 -0.0000 0.7730
vn 0.4714 -0.0000 0.8819
vn 0.2903 -0.0000 0.9569
vn 0.0980 -0.0000 0.9952
vn -0.0980 -0.0000 0.9952
vn -0.2903 -0.0000 0.9569
vn -0.4714 -0.0000 0.8819
vn -0.6344 -0.0000 0.7730
vn -0.7730 -0.0000 0.6344
vn -0.8819 -0.0000 0.4714
vn -0.9569 -0.0000 0.2903
vn -0.9952 -0.0000 0.0980
vn -0.9952 -0.0000 -0.0980
vn -0.9569 -0.0000 -0.2903
vn -0.8819 -0.0000 -0.4714
vn -0.7730 -0.0000 -0.6344
vn -0.6344 -0.0000 -0.7730
vn -0.4714 -0.0000 -0.8819
vn -0.0000 1.0000 -0.0000
vn -0.2903 -0.0000 -0.9569
vn -0.0980 -0.0000 -0.9952
vn -0.0000 -1.0000 -0.0000
vn -1.0000 -0.0000 -0.0000
vn -0.0000 -0.0000 -1.0000
vn 0.7141 -0.7000 -0.0000
vn -0.0000 -0.0000 1.0000
vn 0.7141 0.7000 -0.0000
vt 0.842742 0.008273
vt 0.515572 0.028721
vt 0.515572 0.008273
vt 0.842742 0.028721
vt 0.515572 0.049169
vt 0.842742 0.049169
vt 0.515572 0.069617
vt 0.842742 0.069617
vt 0.515572 0.090065
vt 0.842742 0.090065
vt 0.515572 0.110513
vt 0.842742 0.110513
vt 0.515572 0.130961
vt 0.842742 0.130961
vt 0.515572 0.151409
vt 0.842742 0.151409
vt 0.515572 0.171857
vt 0.842742 0.171857
vt 0.515572 0.192306
vt 0.842742 0.192305
vt 0.515572 0.212754
vt 0.842742 0.212754
vt 0.515572 0.233202
vt 0.842742 0.233202
vt 0.515572 0.253650
vt 0.842742 0.253650
vt 0.515572 0.274098
vt 0.842742 0.274098
vt 0.515572 0.294546
vt 0.842742 0.294546
vt 0.515572 0.314994
vt 0.842742 0.314994
vt 0.515572 0.335442
vt 0.842742 0.335442
vt 0.515572 0.355890
vt 0.842742 0.355890
vt 0.515572 0.376338
vt 0.842742 0.376338
vt 0.515572 0.396787
vt 0.842742 0.396787
vt 0.515572 0.417235
vt 0.842742 0.417235
vt 0.515572 0.437683
vt 0.842742 0.437683
vt 0.515572 0.458131
vt 0.842742 0.458131
vt 0.515572 0.478579
vt 0.842742 0.478579
vt 0.515572 0.499027
vt 0.842742 0.499027
vt 0.515572 0.519475
vt 0.842742 0.519475
vt 0.515572 0.539923
vt 0.842742 0.539923
vt 0.515572 0.560371
vt 0.842742 0.560371
vt 0.515572 0.580819
vt 0.842742 0.580819
vt 0.515572 0.601268
vt 0.842742 0.601268
vt 0.515572 0.621716
vt 0.118971 0.685163
vt 0.314837 0.789856
vt 0.210144 0.985722
vt 0.842742 0.621716
vt 0.515572 0.642164
vt 0.842742 0.642164
vt 0.515572 0.662612
vt 0.649959 0.820049
vt 0.478281 0.679157
vt 0.337388 0.850835
vt 0.335442 0.008273
vt 0.253650 0.171857
vt 0.253650 0.008273
vt 0.335442 0.171857
vt 0.253650 0.335442
vt 0.335442 0.335442
vt 0.253650 0.499027
vt 0.335442 0.662612
vt 0.253650 0.662612
vt 0.171857 0.335442
vt 0.008273 0.499027
vt 0.008273 0.335442
vt 0.499027 0.335442
vt 0.335442 0.499027
vt 0.171857 0.662612
vt 0.171857 0.499027
vt 0.171857 0.171857
vt 0.171857 0.008273
vt 0.179950 0.991728
vt 0.149165 0.991728
vt 0.118971 0.985722
vt 0.090529 0.973940
vt 0.064932 0.956837
vt 0.043163 0.935068
vt 0.026060 0.909471
vt 0.014278 0.881029
vt 0.008272 0.850835
vt 0.008272 0.820049
vt 0.014278 0.789855
vt 0.026060 0.761413
vt 0.043163 0.735816
vt 0.064932 0.714048
vt 0.090529 0.696944
vt 0.149165 0.679157
vt 0.179951 0.679157
vt 0.210145 0.685163
vt 0.238587 0.696944
vt 0.264184 0.714048
vt 0.285952 0.735816
vt 0.303056 0.761414
vt 0.320843 0.820050
vt 0.320843 0.850835
vt 0.314837 0.881029
vt 0.303056 0.909471
vt 0.285952 0.935068
vt 0.264184 0.956837
vt 0.238587 0.973941
vt 0.842742 0.662612
vt 0.343394 0.881029
vt 0.355175 0.909471
vt 0.372279 0.935068
vt 0.394047 0.956837
vt 0.419645 0.973940
vt 0.448087 0.985722
vt 0.478281 0.991727
vt 0.509066 0.991727
vt 0.539260 0.985722
vt 0.567702 0.973940
vt 0.593299 0.956837
vt 0.615068 0.935068
vt 0.632172 0.909471
vt 0.643953 0.881029
vt 0.649959 0.850835
vt 0.643953 0.789855
vt 0.632172 0.761413
vt 0.615068 0.735816
vt 0.593299 0.714047
vt 0.567702 0.696944
vt 0.539260 0.685163
vt 0.509066 0.679157
vt 0.448087 0.685163
vt 0.419644 0.696944
vt 0.394047 0.714048
vt 0.372279 0.735816
vt 0.355175 0.761413
vt 0.343394 0.789855
vt 0.337388 0.820049
vt 0.499027 0.499027
s 0
usemtl マテリアル
f 2/1/1 3/2/1 1/3/1
f 4/4/2 5/5/2 3/2/2
f 6/6/3 7/7/3 5/5/3
f 8/8/4 9/9/4 7/7/4
f 10/10/5 11/11/5 9/9/5
f 12/12/6 13/13/6 11/11/6
f 14/14/7 15/15/7 13/13/7
f 16/16/8 17/17/8 15/15/8
f 18/18/9 19/19/9 17/17/9
f 20/20/10 21/21/10 19/19/10
f 22/22/11 23/23/11 21/21/11
f 24/24/12 25/25/12 23/23/12
f 26/26/13 27/27/13 25/25/13
f 28/28/14 29/29/14 27/27/14
f 30/30/15 31/31/15 29/29/15
f 32/32/16 33/33/16 31/31/16
f 34/34/17 35/35/17 33/33/17
f 36/36/18 37/37/18 35/35/18
f 38/38/19 39/39/19 37/37/19
f 40/40/20 41/41/20 39/39/20
f 42/42/21 43/43/21 41/41/21
f 44/44/22 45/45/22 43/43/22
f 46/46/23 47/47/23 45/45/23
f 48/48/24 49/49/24 47/47/24
f 50/50/25 51/51/25 49/49/25
f 52/52/26 53/53/26 51/51/26
f 54/54/27 55/55/27 53/53/27
f 56/56/28 57/57/28 55/55/28
f 58/58/29 59/59/29 57/57/29
f 60/60/30 61/61/30 59/59/30
f 38/62/31 22/63/31 6/64/31
f 62/65/32 63/66/32 61/61/32
f 64/67/33 1/68/33 63/66/33
f 31/69/34 47/70/34 63/71/34
f 66/72/35 74/73/35 73/74/35
f 68/75/36 75/76/36 74/73/36
f 72/77/37 76/78/37 75/76/37
f 76/78/38 66/79/38 73/80/38
f 71/81/34 65/82/34 67/83/34
f 68/84/31 70/85/31 72/77/31
f 76/78/38 65/86/38 69/87/38
f 75/76/39 69/87/39 71/81/39
f 67/88/36 75/76/36 71/81/36
f 73/74/35 67/88/35 65/89/35
f 2/1/1 4/4/1 3/2/1
f 4/4/2 6/6/2 5/5/2
f 6/6/3 8/8/3 7/7/3
f 8/8/4 10/10/4 9/9/4
f 10/10/5 12/12/5 11/11/5
f 12/12/6 14/14/6 13/13/6
f 14/14/7 16/16/7 15/15/7
f 16/16/8 18/18/8 17/17/8
f 18/18/9 20/20/9 19/19/9
f 20/20/10 22/22/10 21/21/10
f 22/22/11 24/24/11 23/23/11
f 24/24/12 26/26/12 25/25/12
f 26/26/13 28/28/13 27/27/13
f 28/28/14 30/30/14 29/29/14
f 30/30/15 32/32/15 31/31/15
f 32/32/16 34/34/16 33/33/16
f 34/34/17 36/36/17 35/35/17
f 36/36/18 38/38/18 37/37/18
f 38/38/19 40/40/19 39/39/19
f 40/40/20 42/42/20 41/41/20
f 42/42/21 44/44/21 43/43/21
f 44/44/22 46/46/22 45/45/22
f 46/46/23 48/48/23 47/47/23
f 48/48/24 50/50/24 49/49/24
f 50/50/25 52/52/25 51/51/25
f 52/52/26 54/54/26 53/53/26
f 54/54/27 56/56/27 55/55/27
f 56/56/28 58/58/28 57/57/28
f 58/58/29 60/60/29 59/59/29
f 60/60/30 62/65/30 61/61/30
f 6/64/31 4/90/31 2/91/31
f 2/91/31 64/92/31 62/93/31
f 62/93/31 60/94/31 58/95/31
f 58/95/31 56/96/31 54/97/31
f 54/97/31 52/98/31 50/99/31
f 50/99/31 48/100/31 46/101/31
f 46/101/31 44/102/31 42/103/31
f 42/103/31 40/104/31 38/62/31
f 38/62/31 36/105/31 34/106/31
f 34/106/31 32/107/31 30/108/31
f 30/108/31 28/109/31 26/110/31
f 26/110/31 24/111/31 22/63/31
f 22/63/31 20/112/31 18/113/31
f 18/113/31 16/114/31 14/115/31
f 14/115/31 12/116/31 10/117/31
f 10/117/31 8/118/31 6/64/31
f 6/64/31 2/91/31 62/93/31
f 62/93/31 58/95/31 54/97/31
f 54/97/31 50/99/31 46/101/31
f 46/101/31 42/103/31 38/62/31
f 38/62/31 34/106/31 30/108/31
f 30/108/31 26/110/31 22/63/31
f 22/63/31 18/113/31 14/115/31
f 14/115/31 10/117/31 6/64/31
f 6/64/31 62/93/31 54/97/31
f 54/97/31 46/101/31 38/62/31
f 38/62/31 30/108/31 22/63/31
f 22/63/31 14/115/31 6/64/31
f 6/64/31 54/97/31 38/62/31
f 62/65/32 64/67/32 63/66/32
f 64/67/33 2/119/33 1/68/33
f 63/71/34 1/120/34 3/121/34
f 3/121/34 5/122/34 7/123/34
f 7/123/34 9/124/34 11/125/34
f 11/125/34 13/126/34 15/127/34
f 15/127/34 17/128/34 19/129/34
f 19/129/34 21/130/34 23/131/34
f 23/131/34 25/132/34 27/133/34
f 27/133/34 29/134/34 31/69/34
f 31/69/34 33/135/34 35/136/34
f 35/136/34 37/137/34 39/138/34
f 39/138/34 41/139/34 43/140/34
f 43/140/34 45/141/34 47/70/34
f 47/70/34 49/142/34 51/143/34
f 51/143/34 53/144/34 55/145/34
f 55/145/34 57/146/34 59/147/34
f 59/147/34 61/148/34 63/71/34
f 63/71/34 3/121/34 7/123/34
f 7/123/34 11/125/34 15/127/34
f 15/127/34 19/129/34 23/131/34
f 23/131/34 27/133/34 31/69/34
f 31/69/34 35/136/34 39/138/34
f 39/138/34 43/140/34 47/70/34
f 47/70/34 51/143/34 55/145/34
f 55/145/34 59/147/34 63/71/34
f 63/71/34 7/123/34 15/127/34
f 15/127/34 23/131/34 31/69/34
f 31/69/34 39/138/34 47/70/34
f 47/70/34 55/145/34 63/71/34
f 63/71/34 15/127/34 31/69/34
f 66/72/35 68/75/35 74/73/35
f 68/75/36 72/77/36 75/76/36
f 72/77/37 70/85/37 76/78/37
f 76/78/38 70/85/38 66/79/38
f 71/81/34 69/87/34 65/82/34
f 68/84/31 66/149/31 70/85/31
f 76/78/38 73/80/38 65/86/38
f 75/76/39 76/78/39 69/87/39
f 67/88/36 74/73/36 75/76/36
f 73/74/35 74/73/35 67/88/35
