# Blender 4.1.1
# www.blender.org
mtllib weapon.mtl
o weapon
v -1.600000 12.800001 3.200000
v -1.600000 12.800001 -3.200000
v -1.569256 12.487856 3.200000
v -1.569257 12.487856 -3.200000
v -1.478207 12.187706 3.200000
v -1.478207 12.187706 -3.200000
v -1.330351 11.911087 3.200000
v -1.330351 11.911087 -3.200000
v -1.131371 11.668630 3.200000
v -1.131371 11.668630 -3.200000
v -0.888912 11.469649 3.200000
v -0.888912 11.469649 -3.200000
v -0.612293 11.321793 3.200000
v -0.612294 11.321793 -3.200000
v -0.312144 11.230743 3.200000
v -0.312145 11.230743 -3.200000
v 0.000000 11.200000 3.200000
v -0.000000 11.200000 -3.200000
v 0.312145 11.230743 3.200000
v 0.312144 11.230743 -3.200000
v 0.612294 11.321793 3.200000
v 0.612293 11.321793 -3.200000
v 0.888912 11.469649 3.200000
v 0.888912 11.469649 -3.200000
v 1.131371 11.668630 3.200000
v 1.131371 11.668630 -3.200000
v 1.330351 11.911087 3.200000
v 1.330351 11.911087 -3.200000
v 1.478207 12.187706 3.200000
v 1.478207 12.187706 -3.200000
v 1.569257 12.487856 3.200000
v 1.569256 12.487856 -3.200000
v 1.600000 12.800001 3.200000
v 1.600000 12.800001 -3.200000
v 1.569257 13.112144 3.200000
v 1.569256 13.112144 -3.200000
v 1.478207 13.412294 3.200000
v 1.478207 13.412294 -3.200000
v 1.330351 13.688913 3.200000
v 1.330351 13.688913 -3.200000
v 1.131371 13.931372 3.200000
v 1.131371 13.931372 -3.200000
v 0.888912 14.130352 3.200000
v 0.888912 14.130352 -3.200000
v 0.612294 14.278208 3.200000
v 0.612293 14.278208 -3.200000
v 0.312145 14.369257 3.200000
v 0.312144 14.369257 -3.200000
v 0.000000 14.400000 3.200000
v -0.000000 14.400000 -3.200000
v -0.312144 14.369257 3.200000
v -0.312145 14.369257 -3.200000
v -0.612293 14.278208 3.200000
v -0.612294 14.278208 -3.200000
v -0.888912 14.130352 3.200000
v -0.888912 14.130352 -3.200000
v -1.131371 13.931372 3.200000
v -1.131371 13.931372 -3.200000
v -1.330351 13.688913 3.200000
v -1.330351 13.688913 -3.200000
v -1.478207 13.412294 3.200000
v -1.478207 13.412294 -3.200000
v -1.569256 13.112144 3.200000
v -1.569257 13.112144 -3.200000
v 0.000000 2.400000 -0.160000
v 0.000000 15.200001 -0.160000
v 0.031214 2.400000 -0.156926
v 0.031214 15.200001 -0.156926
v 0.061229 2.400000 -0.147821
v 0.061229 15.200001 -0.147821
v 0.088891 2.400000 -0.133035
v 0.088891 15.200001 -0.133035
v 0.113137 2.400000 -0.113137
v 0.113137 15.200001 -0.113137
v 0.133035 2.400000 -0.088891
v 0.133035 15.200001 -0.088891
v 0.147821 2.400000 -0.061229
v 0.147821 15.200001 -0.061229
v 0.156926 2.400000 -0.031214
v 0.156926 15.200001 -0.031214
v 0.160000 2.400000 0.000000
v 0.160000 15.200001 0.000000
v 0.156926 2.400000 0.031214
v 0.156926 15.200001 0.031214
v 0.147821 2.400000 0.061229
v 0.147821 15.200001 0.061229
v 0.133035 2.400000 0.088891
v 0.133035 15.200001 0.088891
v 0.113137 2.400000 0.113137
v 0.113137 15.200001 0.113137
v 0.088891 2.400000 0.133035
v 0.088891 15.200001 0.133035
v 0.061229 2.400000 0.147821
v 0.061229 15.200001 0.147821
v 0.031214 2.400000 0.156926
v 0.031214 15.200001 0.156926
v 0.000000 2.400000 0.160000
v 0.000000 15.200001 0.160000
v -0.031214 2.400000 0.156926
v -0.031214 15.200001 0.156926
v -0.061229 2.400000 0.147821
v -0.061229 15.200001 0.147821
v -0.088891 2.400000 0.133035
v -0.088891 15.200001 0.133035
v -0.113137 2.400000 0.113137
v -0.113137 15.200001 0.113137
v -0.133035 2.400000 0.088891
v -0.133035 15.200001 0.088891
v -0.147821 2.400000 0.061229
v -0.147821 15.200001 0.061229
v -0.156926 2.400000 0.031214
v -0.156926 15.200001 0.031214
v -0.160000 2.400000 0.000000
v -0.160000 15.200001 0.000000
v -0.156926 2.400000 -0.031214
v -0.156926 15.200001 -0.031214
v -0.147821 2.400000 -0.061229
v -0.147821 15.200001 -0.061229
v -0.133035 2.400000 -0.088891
v -0.133035 15.200001 -0.088891
v -0.113137 2.400000 -0.113137
v -0.113137 15.200001 -0.113137
v -0.088891 2.400000 -0.133035
v -0.088891 15.200001 -0.133035
v -0.061229 2.400000 -0.147821
v -0.061229 15.200001 -0.147821
v -0.031214 2.400000 -0.156926
v -0.031214 15.200001 -0.156926
vn -0.9952 -0.0980 -0.0000
vn -0.9569 -0.2903 -0.0000
vn -0.8819 -0.4714 -0.0000
vn -0.7730 -0.6344 -0.0000
vn -0.6344 -0.7730 -0.0000
vn -0.4714 -0.8819 -0.0000
vn -0.2903 -0.9569 -0.0000
vn -0.0980 -0.9952 -0.0000
vn 0.0980 -0.9952 -0.0000
vn 0.2903 -0.9569 -0.0000
vn 0.4714 -0.8819 -0.0000
vn 0.6344 -0.7730 -0.0000
vn 0.7730 -0.6344 -0.0000
vn 0.8819 -0.4714 -0.0000
vn 0.9569 -0.2903 -0.0000
vn 0.9952 -0.0980 -0.0000
vn 0.9952 0.0980 -0.0000
vn 0.9569 0.2903 -0.0000
vn 0.8819 0.4714 -0.0000
vn 0.7730 0.6344 -0.0000
vn 0.6344 0.7730 -0.0000
vn 0.4714 0.8819 -0.0000
vn 0.2903 0.9569 -0.0000
vn 0.0980 0.9952 -0.0000
vn -0.0980 0.9952 -0.0000
vn -0.2903 0.9569 -0.0000
vn -0.4714 0.8819 -0.0000
vn -0.6344 0.7730 -0.0000
vn -0.7730 0.6344 -0.0000
vn -0.8819 0.4714 -0.0000
vn -0.0000 -0.0000 -1.0000
vn -0.9569 0.2903 -0.0000
vn -0.9952 0.0980 -0.0000
vn -0.0000 -0.0000 1.0000
vn 0.0980 -0.0000 -0.9952
vn 0.2903 -0.0000 -0.9569
vn 0.4714 -0.0000 -0.8819
vn 0.6344 -0.0000 -0.7730
vn 0.7730 -0.0000 -0.6344
vn 0.8819 -0.0000 -0.4714
vn 0.9569 -0.0000 -0.2903
vn 0.9952 -0.0000 -0.0980
vn 0.9952 -0.0000 0.0980
vn 0.9569 -0.0000 0.2903
vn 0.8819 -0.0000 0.4714
vn 0.7730 -0.0000 0.6344
vn 0.6344 -0.0000 0.7730
vn 0.4714 -0.0000 0.8819
vn 0.2903 -0.0000 0.9569
vn 0.0980 -0.0000 0.9952
vn -0.0980 -0.0000 0.9952
vn -0.2903 -0.0000 0.9569
vn -0.4714 -0.0000 0.8819
vn -0.6344 -0.0000 0.7730
vn -0.7730 -0.0000 0.6344
vn -0.8819 -0.0000 0.4714
vn -0.9569 -0.0000 0.2903
vn -0.9952 -0.0000 0.0980
vn -0.9952 -0.0000 -0.0980
vn -0.9569 -0.0000 -0.2903
vn -0.8819 -0.0000 -0.4714
vn -0.7730 -0.0000 -0.6344
vn -0.6344 -0.0000 -0.7730
vn -0.4714 -0.0000 -0.8819
vn -0.0000 1.0000 -0.0000
vn -0.2903 -0.0000 -0.9569
vn -0.0980 -0.0000 -0.9952
vn -0.0000 -1.0000 -0.0000
vn 0.0003 1.0000 -0.0000
vn -0.0004 1.0000 -0.0000
vn 0.0001 1.0000 -0.0000
vn -0.0003 1.0000 -0.0000
vn -0.0001 1.0000 -0.0000
vn -0.0002 -1.0000 -0.0000
vn 0.0001 -1.0000 -0.0000
vt 1.000000 1.000000
vt 0.968750 0.500000
vt 1.000000 0.500000
vt 0.968750 1.000000
vt 0.937500 0.500000
vt 0.937500 1.000000
vt 0.906250 0.500000
vt 0.906250 1.000000
vt 0.875000 0.500000
vt 0.875000 1.000000
vt 0.843750 0.500000
vt 0.843750 1.000000
vt 0.812500 0.500000
vt 0.812500 1.000000
vt 0.781250 0.500000
vt 0.750000 1.000000
vt 0.750000 0.500000
vt 0.718750 1.000000
vt 0.718750 0.500000
vt 0.687500 0.500000
vt 0.687500 1.000000
vt 0.656250 0.500000
vt 0.656250 1.000000
vt 0.625000 0.500000
vt 0.625000 1.000000
vt 0.593750 0.500000
vt 0.593750 1.000000
vt 0.562500 0.500000
vt 0.562500 1.000000
vt 0.531250 0.500000
vt 0.531250 1.000000
vt 0.500000 0.500000
vt 0.500000 1.000000
vt 0.468750 0.500000
vt 0.468750 1.000000
vt 0.437500 0.500000
vt 0.437500 1.000000
vt 0.406250 0.500000
vt 0.406250 1.000000
vt 0.375000 0.500000
vt 0.375000 1.000000
vt 0.343750 0.500000
vt 0.343750 1.000000
vt 0.312500 0.500000
vt 0.312500 1.000000
vt 0.281250 0.500000
vt 0.281250 1.000000
vt 0.250000 0.500000
vt 0.250000 1.000000
vt 0.218750 0.500000
vt 0.218750 1.000000
vt 0.187500 0.500000
vt 0.187500 1.000000
vt 0.156250 0.500000
vt 0.156250 1.000000
vt 0.125000 0.500000
vt 0.125000 1.000000
vt 0.093750 0.500000
vt 0.093750 1.000000
vt 0.062500 0.500000
vt 0.158156 0.028269
vt 0.471731 0.158156
vt 0.341844 0.471731
vt 0.062500 1.000000
vt 0.031250 0.500000
vt 0.031250 1.000000
vt 0.000000 0.500000
vt 0.985388 0.296822
vt 0.796822 0.014612
vt 0.514612 0.203178
vt 0.781250 1.000000
vt 0.471731 0.341844
vt 0.550447 0.383337
vt 0.703178 0.485388
vt 0.296822 0.485388
vt 0.158156 0.471731
vt 0.250000 0.490000
vt 0.203178 0.485388
vt 0.116663 0.449553
vt 0.080294 0.419706
vt 0.050447 0.383337
vt 0.028269 0.341844
vt 0.014612 0.296822
vt 0.010000 0.250000
vt 0.014612 0.203178
vt 0.028269 0.158156
vt 0.050447 0.116663
vt 0.080294 0.080294
vt 0.116663 0.050447
vt 0.203178 0.014612
vt 0.250000 0.010000
vt 0.296822 0.014612
vt 0.341844 0.028269
vt 0.383337 0.050447
vt 0.419706 0.080294
vt 0.449553 0.116663
vt 0.485388 0.203178
vt 0.490000 0.250000
vt 0.485388 0.296822
vt 0.449553 0.383337
vt 0.419706 0.419706
vt 0.383337 0.449553
vt 0.000000 1.000000
vt 0.750000 0.490000
vt 0.796822 0.485388
vt 0.841844 0.471731
vt 0.883337 0.449553
vt 0.919706 0.419706
vt 0.949553 0.383337
vt 0.971731 0.341844
vt 0.990000 0.250000
vt 0.949553 0.116663
vt 0.985388 0.203178
vt 0.971731 0.158156
vt 0.919706 0.080294
vt 0.883337 0.050447
vt 0.841844 0.028269
vt 0.750000 0.010000
vt 0.703178 0.014612
vt 0.658156 0.028269
vt 0.616663 0.050447
vt 0.580294 0.080294
vt 0.550447 0.116663
vt 0.528269 0.158156
vt 0.510000 0.250000
vt 0.514612 0.296822
vt 0.528269 0.341844
vt 0.580294 0.419706
vt 0.616663 0.449553
vt 0.658156 0.471731
s 0
f 2/1/1 3/2/1 1/3/1
f 4/4/2 5/5/2 3/2/2
f 6/6/3 7/7/3 5/5/3
f 8/8/4 9/9/4 7/7/4
f 10/10/5 11/11/5 9/9/5
f 12/12/6 13/13/6 11/11/6
f 14/14/7 15/15/7 13/13/7
f 15/15/8 18/16/8 17/17/8
f 17/17/9 20/18/9 19/19/9
f 20/18/10 21/20/10 19/19/10
f 22/21/11 23/22/11 21/20/11
f 24/23/12 25/24/12 23/22/12
f 26/25/13 27/26/13 25/24/13
f 28/27/14 29/28/14 27/26/14
f 30/29/15 31/30/15 29/28/15
f 32/31/16 33/32/16 31/30/16
f 34/33/17 35/34/17 33/32/17
f 36/35/18 37/36/18 35/34/18
f 38/37/19 39/38/19 37/36/19
f 40/39/20 41/40/20 39/38/20
f 42/41/21 43/42/21 41/40/21
f 44/43/22 45/44/22 43/42/22
f 46/45/23 47/46/23 45/44/23
f 48/47/24 49/48/24 47/46/24
f 50/49/25 51/50/25 49/48/25
f 52/51/26 53/52/26 51/50/26
f 54/53/27 55/54/27 53/52/27
f 56/55/28 57/56/28 55/54/28
f 58/57/29 59/58/29 57/56/29
f 60/59/30 61/60/30 59/58/30
f 38/61/31 22/62/31 6/63/31
f 62/64/32 63/65/32 61/60/32
f 64/66/33 1/67/33 63/65/33
f 15/68/34 31/69/34 47/70/34
f 66/1/35 67/2/35 65/3/35
f 68/4/36 69/5/36 67/2/36
f 70/6/37 71/7/37 69/5/37
f 72/8/38 73/9/38 71/7/38
f 74/10/39 75/11/39 73/9/39
f 76/12/40 77/13/40 75/11/40
f 78/14/41 79/15/41 77/13/41
f 80/71/42 81/17/42 79/15/42
f 82/16/43 83/19/43 81/17/43
f 84/18/44 85/20/44 83/19/44
f 86/21/45 87/22/45 85/20/45
f 88/23/46 89/24/46 87/22/46
f 90/25/47 91/26/47 89/24/47
f 92/27/48 93/28/48 91/26/48
f 94/29/49 95/30/49 93/28/49
f 96/31/50 97/32/50 95/30/50
f 98/33/51 99/34/51 97/32/51
f 100/35/52 101/36/52 99/34/52
f 102/37/53 103/38/53 101/36/53
f 104/39/54 105/40/54 103/38/54
f 106/41/55 107/42/55 105/40/55
f 108/43/56 109/44/56 107/42/56
f 110/45/57 111/46/57 109/44/57
f 112/47/58 113/48/58 111/46/58
f 114/49/59 115/50/59 113/48/59
f 116/51/60 117/52/60 115/50/60
f 118/53/61 119/54/61 117/52/61
f 120/55/62 121/56/62 119/54/62
f 122/57/63 123/58/63 121/56/63
f 124/59/64 125/60/64 123/58/64
f 86/62/65 78/72/65 70/63/65
f 126/64/66 127/65/66 125/60/66
f 128/66/67 65/67/67 127/65/67
f 119/73/68 127/74/68 95/69/68
f 2/1/1 4/4/1 3/2/1
f 4/4/2 6/6/2 5/5/2
f 6/6/3 8/8/3 7/7/3
f 8/8/4 10/10/4 9/9/4
f 10/10/5 12/12/5 11/11/5
f 12/12/6 14/14/6 13/13/6
f 14/14/7 16/71/7 15/15/7
f 15/15/8 16/71/8 18/16/8
f 17/17/9 18/16/9 20/18/9
f 20/18/10 22/21/10 21/20/10
f 22/21/11 24/23/11 23/22/11
f 24/23/12 26/25/12 25/24/12
f 26/25/13 28/27/13 27/26/13
f 28/27/14 30/29/14 29/28/14
f 30/29/15 32/31/15 31/30/15
f 32/31/16 34/33/16 33/32/16
f 34/33/17 36/35/17 35/34/17
f 36/35/18 38/37/18 37/36/18
f 38/37/19 40/39/19 39/38/19
f 40/39/20 42/41/20 41/40/20
f 42/41/21 44/43/21 43/42/21
f 44/43/22 46/45/22 45/44/22
f 46/45/23 48/47/23 47/46/23
f 48/47/24 50/49/24 49/48/24
f 50/49/25 52/51/25 51/50/25
f 52/51/26 54/53/26 53/52/26
f 54/53/27 56/55/27 55/54/27
f 56/55/28 58/57/28 57/56/28
f 58/57/29 60/59/29 59/58/29
f 60/59/30 62/64/30 61/60/30
f 6/63/31 4/75/31 62/76/31
f 4/75/31 2/77/31 62/76/31
f 2/77/31 64/78/31 62/76/31
f 62/76/31 60/79/31 58/80/31
f 58/80/31 56/81/31 54/82/31
f 54/82/31 52/83/31 50/84/31
f 50/84/31 48/85/31 46/86/31
f 46/86/31 44/87/31 42/88/31
f 42/88/31 40/89/31 38/61/31
f 38/61/31 36/90/31 34/91/31
f 34/91/31 32/92/31 38/61/31
f 32/92/31 30/93/31 38/61/31
f 30/93/31 28/94/31 26/95/31
f 26/95/31 24/96/31 22/62/31
f 22/62/31 20/97/31 18/98/31
f 18/98/31 16/99/31 14/72/31
f 14/72/31 12/100/31 10/101/31
f 10/101/31 8/102/31 6/63/31
f 62/76/31 58/80/31 6/63/31
f 58/80/31 54/82/31 6/63/31
f 54/82/31 50/84/31 46/86/31
f 46/86/31 42/88/31 54/82/31
f 42/88/31 38/61/31 54/82/31
f 30/93/31 26/95/31 38/61/31
f 26/95/31 22/62/31 38/61/31
f 22/62/31 18/98/31 14/72/31
f 14/72/31 10/101/31 22/62/31
f 10/101/31 6/63/31 22/62/31
f 6/63/31 54/82/31 38/61/31
f 62/64/32 64/66/32 63/65/32
f 64/66/33 2/103/33 1/67/33
f 63/74/34 1/104/34 3/105/34
f 3/105/34 5/106/34 7/107/34
f 7/107/34 9/108/34 11/109/34
f 11/109/34 13/110/34 15/68/34
f 15/68/34 17/111/34 23/112/34
f 17/111/34 19/113/34 23/112/34
f 19/113/34 21/114/34 23/112/34
f 23/112/34 25/115/34 31/69/34
f 25/115/34 27/116/34 31/69/34
f 27/116/34 29/117/34 31/69/34
f 31/69/34 33/118/34 35/119/34
f 35/119/34 37/120/34 39/121/34
f 39/121/34 41/122/34 43/123/34
f 43/123/34 45/124/34 47/70/34
f 47/70/34 49/125/34 55/73/34
f 49/125/34 51/126/34 55/73/34
f 51/126/34 53/127/34 55/73/34
f 55/73/34 57/128/34 63/74/34
f 57/128/34 59/129/34 63/74/34
f 59/129/34 61/130/34 63/74/34
f 63/74/34 3/105/34 7/107/34
f 7/107/34 11/109/34 63/74/34
f 11/109/34 15/68/34 63/74/34
f 31/69/34 35/119/34 39/121/34
f 39/121/34 43/123/34 31/69/34
f 43/123/34 47/70/34 31/69/34
f 15/68/34 23/112/34 31/69/34
f 47/70/34 55/73/34 63/74/34
f 63/74/34 15/68/34 47/70/34
f 66/1/35 68/4/35 67/2/35
f 68/4/36 70/6/36 69/5/36
f 70/6/37 72/8/37 71/7/37
f 72/8/38 74/10/38 73/9/38
f 74/10/39 76/12/39 75/11/39
f 76/12/40 78/14/40 77/13/40
f 78/14/41 80/71/41 79/15/41
f 80/71/42 82/16/42 81/17/42
f 82/16/43 84/18/43 83/19/43
f 84/18/44 86/21/44 85/20/44
f 86/21/45 88/23/45 87/22/45
f 88/23/46 90/25/46 89/24/46
f 90/25/47 92/27/47 91/26/47
f 92/27/48 94/29/48 93/28/48
f 94/29/49 96/31/49 95/30/49
f 96/31/50 98/33/50 97/32/50
f 98/33/51 100/35/51 99/34/51
f 100/35/52 102/37/52 101/36/52
f 102/37/53 104/39/53 103/38/53
f 104/39/54 106/41/54 105/40/54
f 106/41/55 108/43/55 107/42/55
f 108/43/56 110/45/56 109/44/56
f 110/45/57 112/47/57 111/46/57
f 112/47/58 114/49/58 113/48/58
f 114/49/59 116/51/59 115/50/59
f 116/51/60 118/53/60 117/52/60
f 118/53/61 120/55/61 119/54/61
f 120/55/62 122/57/62 121/56/62
f 122/57/63 124/59/63 123/58/63
f 124/59/64 126/64/64 125/60/64
f 70/63/65 68/75/65 126/76/65
f 68/75/65 66/77/65 126/76/65
f 66/77/65 128/78/65 126/76/65
f 126/76/65 124/79/65 118/82/65
f 124/79/69 122/80/69 118/82/69
f 122/80/70 120/81/70 118/82/70
f 118/82/70 116/83/70 114/84/70
f 114/84/65 112/85/65 118/82/65
f 112/85/65 110/86/65 118/82/65
f 110/86/71 108/87/71 102/61/71
f 108/87/72 106/88/72 102/61/72
f 106/88/65 104/89/65 102/61/65
f 102/61/65 100/90/65 98/91/65
f 98/91/65 96/92/65 102/61/65
f 96/92/65 94/93/65 102/61/65
f 94/93/72 92/94/72 86/62/72
f 92/94/69 90/95/69 86/62/69
f 90/95/70 88/96/70 86/62/70
f 86/62/69 84/97/69 78/72/69
f 84/97/72 82/98/72 78/72/72
f 82/98/65 80/99/65 78/72/65
f 78/72/73 76/100/73 70/63/73
f 76/100/65 74/101/65 70/63/65
f 74/101/65 72/102/65 70/63/65
f 70/63/65 126/76/65 102/61/65
f 126/76/65 118/82/65 102/61/65
f 118/82/71 110/86/71 102/61/71
f 102/61/65 94/93/65 70/63/65
f 94/93/65 86/62/65 70/63/65
f 126/64/66 128/66/66 127/65/66
f 128/66/67 66/103/67 65/67/67
f 127/74/68 65/104/68 67/105/68
f 67/105/68 69/106/68 71/107/68
f 71/107/68 73/108/68 75/109/68
f 75/109/68 77/110/68 71/107/68
f 77/110/68 79/68/68 71/107/68
f 79/68/68 81/111/68 83/113/68
f 83/113/74 85/114/74 87/112/74
f 87/112/68 89/115/68 91/116/68
f 91/116/68 93/117/68 95/69/68
f 95/69/68 97/118/68 99/119/68
f 99/119/68 101/120/68 103/121/68
f 103/121/68 105/122/68 107/123/68
f 107/123/68 109/124/68 111/70/68
f 111/70/68 113/125/68 115/126/68
f 115/126/68 117/127/68 119/73/68
f 119/73/68 121/128/68 123/129/68
f 123/129/68 125/130/68 127/74/68
f 127/74/68 67/105/68 71/107/68
f 79/68/68 83/113/68 87/112/68
f 87/112/68 91/116/68 95/69/68
f 95/69/68 99/119/68 103/121/68
f 103/121/68 107/123/68 111/70/68
f 111/70/75 115/126/75 119/73/75
f 119/73/68 123/129/68 127/74/68
f 127/74/68 71/107/68 79/68/68
f 79/68/68 87/112/68 127/74/68
f 87/112/68 95/69/68 127/74/68
f 95/69/68 103/121/68 111/70/68
f 111/70/68 119/73/68 95/69/68
