# Blender 4.2.1 LTS
# www.blender.org
mtllib GoalEffect.mtl
o Cube.001
v 0.800000 0.100000 -1.000000
v 0.800000 -0.100000 -1.000000
v 1.000000 0.100000 -1.000000
v 1.000000 -0.100000 -1.000000
v 0.800000 0.100000 1.000000
v 0.800000 -0.100000 1.000000
v 1.000000 0.100000 1.000000
v 1.000000 -0.100000 1.000000
v -1.000000 0.100000 -1.000000
v -1.000000 -0.100000 -1.000000
v -0.800000 0.100000 -1.000000
v -0.800000 -0.100000 -1.000000
v -1.000000 0.100000 1.000000
v -1.000000 -0.100000 1.000000
v -0.800000 0.100000 1.000000
v -0.800000 -0.100000 1.000000
vn -0.0000 1.0000 -0.0000
vn 1.0000 -0.0000 -0.0000
vn -0.0000 -0.0000 1.0000
vn -0.0000 -1.0000 -0.0000
vn -0.0000 -0.0000 -1.0000
vn -1.0000 -0.0000 -0.0000
vt 0.625000 0.500000
vt 0.875000 0.500000
vt 0.875000 0.750000
vt 0.625000 0.750000
vt 0.375000 0.750000
vt 0.625000 1.000000
vt 0.375000 1.000000
vt 0.375000 0.000000
vt 0.625000 0.000000
vt 0.625000 0.250000
vt 0.375000 0.250000
vt 0.125000 0.500000
vt 0.375000 0.500000
vt 0.125000 0.750000
s 0
usemtl Material.001
f 1/1/1 5/2/1 7/3/1 3/4/1
f 4/5/2 3/4/2 7/6/2 8/7/2
f 8/8/3 7/9/3 5/10/3 6/11/3
f 6/12/4 2/13/4 4/5/4 8/14/4
f 2/13/5 1/1/5 3/4/5 4/5/5
f 6/11/6 5/10/6 1/1/6 2/13/6
usemtl Material
f 9/1/1 13/2/1 15/3/1 11/4/1
f 12/5/2 11/4/2 15/6/2 16/7/2
f 16/8/3 15/9/3 13/10/3 14/11/3
f 14/12/4 10/13/4 12/5/4 16/14/4
f 10/13/5 9/1/5 11/4/5 12/5/5
f 14/11/6 13/10/6 9/1/6 10/13/6
o Cube.002
v 1.000000 0.100000 0.800000
v 1.000000 -0.100000 0.800000
v 1.000000 0.100000 1.000000
v 1.000000 -0.100000 1.000000
v -1.000000 0.100000 0.800000
v -1.000000 -0.100000 0.800000
v -1.000000 0.100000 1.000000
v -1.000000 -0.100000 1.000000
v 1.000000 0.100000 -1.000000
v 1.000000 -0.100000 -1.000000
v 1.000000 0.100000 -0.800000
v 1.000000 -0.100000 -0.800000
v -1.000000 0.100000 -1.000000
v -1.000000 -0.100000 -1.000000
v -1.000000 0.100000 -0.800000
v -1.000000 -0.100000 -0.800000
vn -0.0000 1.0000 -0.0000
vn -0.0000 -0.0000 1.0000
vn -1.0000 -0.0000 -0.0000
vn -0.0000 -1.0000 -0.0000
vn 1.0000 -0.0000 -0.0000
vn -0.0000 -0.0000 -1.0000
vt 0.625000 0.500000
vt 0.875000 0.500000
vt 0.875000 0.750000
vt 0.625000 0.750000
vt 0.375000 0.750000
vt 0.625000 1.000000
vt 0.375000 1.000000
vt 0.375000 0.000000
vt 0.625000 0.000000
vt 0.625000 0.250000
vt 0.375000 0.250000
vt 0.125000 0.500000
vt 0.375000 0.500000
vt 0.125000 0.750000
s 0
usemtl Material.002
f 17/15/7 21/16/7 23/17/7 19/18/7
f 20/19/8 19/18/8 23/20/8 24/21/8
f 24/22/9 23/23/9 21/24/9 22/25/9
f 22/26/10 18/27/10 20/19/10 24/28/10
f 18/27/11 17/15/11 19/18/11 20/19/11
f 22/25/12 21/24/12 17/15/12 18/27/12
usemtl Material.003
f 25/15/7 29/16/7 31/17/7 27/18/7
f 28/19/8 27/18/8 31/20/8 32/21/8
f 32/22/9 31/23/9 29/24/9 30/25/9
f 30/26/10 26/27/10 28/19/10 32/28/10
f 26/27/11 25/15/11 27/18/11 28/19/11
f 30/25/12 29/24/12 25/15/12 26/27/12
