# Blender 4.2.0
# www.blender.org
mtllib enemy_propeller.mtl
o propeller
v -0.027244 2.143126 -0.145727
v -0.027244 2.943126 -0.145727
v 0.043467 2.143126 -0.116437
v 0.043467 2.943126 -0.116437
v 0.072756 2.143126 -0.045727
v 0.072756 2.943126 -0.045727
v 0.043467 2.143126 0.024984
v 0.043467 2.943126 0.024984
v -0.027244 2.143126 0.054273
v -0.027244 2.943126 0.054273
v -0.097955 2.143126 0.024984
v -0.097955 2.943126 0.024984
v -0.127244 2.143126 -0.045727
v -0.127244 2.943126 -0.045727
v -0.097955 2.143126 -0.116437
v -0.097955 2.943126 -0.116437
v -1.027244 2.934231 0.054273
v -1.027244 3.014231 0.054273
v -1.027244 2.934231 -0.145727
v -1.027244 3.014231 -0.145727
v 0.972756 2.934231 0.054273
v 0.972756 3.014231 0.054273
v 0.972756 2.934231 -0.145727
v 0.972756 3.014231 -0.145727
vn 0.3827 -0.0000 -0.9239
vn 0.9239 -0.0000 -0.3827
vn 0.9239 -0.0000 0.3827
vn 0.3827 -0.0000 0.9239
vn -0.3827 -0.0000 0.9239
vn -0.9239 -0.0000 0.3827
vn -0.0000 1.0000 -0.0000
vn -0.9239 -0.0000 -0.3827
vn -0.3827 -0.0000 -0.9239
vn -0.0000 -1.0000 -0.0000
vn -1.0000 -0.0000 -0.0000
vn -0.0000 -0.0000 -1.0000
vn 1.0000 -0.0000 -0.0000
vn -0.0000 -0.0000 1.0000
vt 1.000000 1.000000
vt 0.875000 0.500000
vt 1.000000 0.500000
vt 0.875000 1.000000
vt 0.750000 0.500000
vt 0.750000 1.000000
vt 0.625000 0.500000
vt 0.625000 1.000000
vt 0.500000 0.500000
vt 0.500000 1.000000
vt 0.375000 0.500000
vt 0.375000 1.000000
vt 0.250000 0.500000
vt 0.010000 0.250000
vt 0.250000 0.010000
vt 0.490000 0.250000
vt 0.250000 1.000000
vt 0.125000 0.500000
vt 0.125000 1.000000
vt 0.000000 0.500000
vt 0.919706 0.080294
vt 0.580294 0.080294
vt 0.580294 0.419706
vt 0.625000 0.000000
vt 0.375000 0.250000
vt 0.375000 0.000000
vt 0.625000 0.250000
vt 0.375000 0.750000
vt 0.625000 0.750000
vt 0.125000 0.750000
vt 0.419706 0.419706
vt 0.250000 0.490000
vt 0.080294 0.419706
vt 0.080294 0.080294
vt 0.419706 0.080294
vt 0.000000 1.000000
vt 0.750000 0.490000
vt 0.919706 0.419706
vt 0.990000 0.250000
vt 0.750000 0.010000
vt 0.510000 0.250000
vt 0.875000 0.750000
s 0
f 2/1/1 3/2/1 1/3/1
f 4/4/2 5/5/2 3/2/2
f 6/6/3 7/7/3 5/5/3
f 8/8/4 9/9/4 7/7/4
f 10/10/5 11/11/5 9/9/5
f 12/12/6 13/13/6 11/11/6
f 14/14/7 10/15/7 6/16/7
f 14/17/8 15/18/8 13/13/8
f 16/19/9 1/20/9 15/18/9
f 7/21/10 11/22/10 15/23/10
f 18/24/11 19/25/11 17/26/11
f 20/27/12 23/11/12 19/25/12
f 24/7/13 21/28/13 23/11/13
f 22/29/14 17/12/14 21/28/14
f 23/11/10 17/30/10 19/18/10
f 20/2/7 22/29/7 24/7/7
f 2/1/1 4/4/1 3/2/1
f 4/4/2 6/6/2 5/5/2
f 6/6/3 8/8/3 7/7/3
f 8/8/4 10/10/4 9/9/4
f 10/10/5 12/12/5 11/11/5
f 12/12/6 14/17/6 13/13/6
f 6/16/7 4/31/7 2/32/7
f 2/32/7 16/33/7 14/14/7
f 14/14/7 12/34/7 10/15/7
f 10/15/7 8/35/7 6/16/7
f 6/16/7 2/32/7 14/14/7
f 14/17/8 16/19/8 15/18/8
f 16/19/9 2/36/9 1/20/9
f 15/23/10 1/37/10 3/38/10
f 3/38/10 5/39/10 7/21/10
f 7/21/10 9/40/10 11/22/10
f 11/22/10 13/41/10 15/23/10
f 15/23/10 3/38/10 7/21/10
f 18/24/11 20/27/11 19/25/11
f 20/27/12 24/7/12 23/11/12
f 24/7/13 22/29/13 21/28/13
f 22/29/14 18/8/14 17/12/14
f 23/11/10 21/28/10 17/30/10
f 20/2/7 18/42/7 22/29/7
